# xmcd
#
# Track frame offsets: 
#        150
#        17233
#        36876
#        54827
#
# Disc length: 956 seconds
#
# Revision: 2
# Processed by: cddbd v1.5.2PL0 Copyright (c) Steve Scherf et al.
# Submitted via: ExactAudioCopy v0.99pb5
#
DISCID=2803ba04
DTITLE=Jennifer Lopez - Get Right
DYEAR=2005
DGENRE=R&B
TTITLE0=Get Right (Album Version)
TTITLE1=Love Don't Cost A Thing (RJ Schoolyard Mix Featuring Fat Joe)
TTITLE2=If You Had My Love (Dark Child Remix Radio Edit)
TTITLE3=Get Right [Instrumental]
EXTD=YEAR: 2004 ID3G: 17
EXTT0=
EXTT1=
EXTT2=
EXTT3=
PLAYORDER=
